<?xml version="1.0" ?><!DOCTYPE svg  PUBLIC '-//W3C//DTD SVG 1.0//EN'  'http://www.w3.org/TR/2001/REC-SVG-20010904/DTD/svg10.dtd'><svg height="110px" style="enable-background:new 0 0 110 110;" version="1.0" viewBox="0 0 110 110" width="110px" xml:space="preserve" xmlns="http://www.w3.org/2000/svg" xmlns:xlink="http://www.w3.org/1999/xlink"><g id="Multicolor"><g><path d="M79,42.303V28c0-0.552-0.448-1-1-1H68c-0.552,0-1,0.448-1,1v4.018L79,42.303z" style="fill:#FFFFFF;"/><path d="M80.397,54.037L55,32.269L29.604,54.037c-0.337,0.289-0.714,0.494-1.104,0.652V87H81V54.464    C80.79,54.342,80.588,54.201,80.397,54.037z M47,61c0,0.552-0.448,1-1,1h-6c-0.552,0-1-0.448-1-1v-6c0-0.552,0.448-1,1-1h6    c0.552,0,1,0.448,1,1V61z M71,61c0,0.552-0.448,1-1,1h-6c-0.552,0-1-0.448-1-1v-6c0-0.552,0.448-1,1-1h6c0.552,0,1,0.448,1,1V61z" style="fill:#F0F1F1;"/><path d="M55.08,67h-0.16C50.546,67,47,70.546,47,74.92V87h16V74.92C63,70.546,59.454,67,55.08,67z" style="fill:#9C6144;"/><g><path d="M82.998,55c-0.921,0-1.847-0.316-2.601-0.963L55,32.268L29.603,54.037     c-1.677,1.438-4.202,1.243-5.64-0.434c-1.438-1.677-1.244-4.203,0.434-5.64l28-24c1.498-1.284,3.708-1.284,5.206,0l28,24     c1.677,1.438,1.872,3.963,0.434,5.64C85.246,54.526,84.125,55,82.998,55z" style="fill:#DF2C2C;"/></g><path d="M29.604,54.037c-0.337,0.289-0.714,0.494-1.104,0.652v32.259l41.674-41.674L55,32.269    L29.604,54.037z M47,61c0,0.552-0.448,1-1,1h-6c-0.552,0-1-0.448-1-1v-6c0-0.552,0.448-1,1-1h6c0.552,0,1,0.448,1,1V61z" style="fill:#FFFFFF;"/><path d="M47,61c0,0.552-0.448,1-1,1h-6c-0.552,0-1-0.448-1-1v-6c0-0.552,0.448-1,1-1h6c0.552,0,1,0.448,1,1    V61z M71,61c0,0.552-0.448,1-1,1h-6c-0.552,0-1-0.448-1-1v-6c0-0.552,0.448-1,1-1h6c0.552,0,1,0.448,1,1V61z" style="fill:#40C9E7;"/></g></g></svg>