<?xml version="1.0" ?><!DOCTYPE svg  PUBLIC '-//W3C//DTD SVG 1.0//EN'  'http://www.w3.org/TR/2001/REC-SVG-20010904/DTD/svg10.dtd'><svg height="110px" style="enable-background:new 0 0 110 110;" version="1.0" viewBox="0 0 110 110" width="110px" xml:space="preserve" xmlns="http://www.w3.org/2000/svg" xmlns:xlink="http://www.w3.org/1999/xlink"><g id="Multicolor"><g><path d="M75,51h-4V39c0-8.822-7.178-16-16-16s-16,7.178-16,16v12h-4c-2.209,0-4,1.791-4,4    c0,10.347,0,17.604,0,28c0,2.204,1.839,4,4,4h40c2.209,0,4-1.791,4-4c0-10.053,0-17.556,0-28C79,52.791,77.209,51,75,51z M47,51    V39c0-4.411,3.589-8,8-8s8,3.589,8,8v12H47z" style="fill:#FACB1B;"/><path d="M55,51H35c-2.209,0-4,1.791-4,4c0,10.347,0,17.604,0,28c0,2.204,1.839,4,4,4h20V51z" style="fill:#FBE158;"/><rect height="4" style="fill:#F3B607;" width="48" x="31" y="57"/><rect height="4" style="fill:#F3B607;" width="48" x="31" y="67"/><rect height="4" style="fill:#F3B607;" width="48" x="31" y="77"/><rect height="4" style="fill:#FACB1B;" width="24" x="31" y="57"/><rect height="4" style="fill:#FACB1B;" width="24" x="31" y="67"/><rect height="4" style="fill:#FACB1B;" width="24" x="31" y="77"/><path d="M59,66c0-2.209-1.791-4-4-4s-4,1.791-4,4c0,1.538,0.878,2.858,2.151,3.527L51,81h8l-2.151-11.473    C58.122,68.858,59,67.538,59,66z" style="fill:#9C6144;"/></g></g></svg>