<?xml version="1.0" encoding="UTF-8"?>
<svg width="400px" height="400px" viewBox="0 0 400 400" version="1.1" xmlns="http://www.w3.org/2000/svg" xmlns:xlink="http://www.w3.org/1999/xlink">
    <!-- Generator: Sketch 42 (36781) - http://www.bohemiancoding.com/sketch -->
    <title>Group 2</title>
    <desc>Created with Sketch.</desc>
    <defs></defs>
    <g id="Page-1" stroke="none" stroke-width="1" fill="none" fill-rule="evenodd">
        <g id="Group-2">
            <path d="M400,0 L400,349.997237 C400,377.613001 377.619143,400 349.997237,400 L0,400 L400,0 Z M294.3076,269.940296 C298.949029,264.660139 305.485255,262.0201 313.916474,262.0201 C321.666383,262.0201 328.160027,264.511104 333.397603,269.493188 C338.635178,274.475272 341.551995,281.777961 342.148142,291.401474 L285.557061,291.401474 C286.749354,282.374108 289.666172,275.220454 294.3076,269.940296 Z M345.214025,238.515 C335.931167,234.171645 325.498755,232 313.916474,232 C294.413957,232 278.552432,238.429773 266.331423,251.289511 C254.110413,264.149249 248,282.629523 248,306.730886 C248,332.450363 254.770423,351.015799 268.311472,362.427752 C281.85252,373.839705 297.479849,379.545596 315.193925,379.545596 C336.65521,379.545596 353.34707,372.775173 365.270006,359.234124 C372.934751,350.717741 377.23546,342.32923 378.172262,334.068339 L340.998436,334.068339 C339.039668,338.156203 336.782861,341.349798 334.227946,343.649222 C329.543935,347.907413 323.454813,350.036477 315.960396,350.036477 C308.891798,350.036477 302.845257,348.290645 297.820591,344.798928 C289.559699,339.178115 285.173828,329.384421 284.662845,315.417553 L379.960693,315.417553 C380.131021,303.409454 379.747789,294.211898 378.810987,287.824611 C377.192875,276.923641 373.658629,267.342854 368.208144,259.081962 C362.161512,249.713941 354.496882,242.858356 345.214025,238.515 Z" id="br" fill="#009688"></path>
            <path d="M1.35898149e-12,340 L4.54747351e-13,52.997594 C3.67749701e-13,25.3846853 22.3904905,2.80243685 49.9968914,2.55885096 L340,0 L1.35898149e-12,340 Z" id="tl" fill="#4DB6AC"></path>
        </g>
    </g>
</svg>