<?xml version="1.0" ?><!DOCTYPE svg  PUBLIC '-//W3C//DTD SVG 1.0//EN'  'http://www.w3.org/TR/2001/REC-SVG-20010904/DTD/svg10.dtd'><svg height="110px" style="enable-background:new 0 0 110 110;" version="1.0" viewBox="0 0 110 110" width="110px" xml:space="preserve" xmlns="http://www.w3.org/2000/svg" xmlns:xlink="http://www.w3.org/1999/xlink"><g id="Multicolor"><g><path d="M83.052,46.74L51.419,78.346c0,0-20.667,6.587-20.757,6.614c-0.331-1.324-1.008-2.57-2.033-3.595    c-1.025-1.025-2.272-1.702-3.595-2.033c0.027-0.09,6.6-20.77,6.6-20.77s31.594-31.594,31.619-31.619L83.052,46.74z" style="fill:#F4D0A1;"/><path d="M63.252,26.941c-0.025,0.025-31.619,31.619-31.619,31.619s-6.573,20.681-6.6,20.771    c1.296,0.324,2.515,0.985,3.529,1.975L73.09,36.779L63.252,26.941z" style="fill:#F8E1C2;"/><path d="M84.423,45.369l-1.414,1.414L63.21,26.984l1.414-1.414c3.125-3.125,8.188-3.125,11.314,0    l8.485,8.485C87.549,37.18,87.549,42.243,84.423,45.369z" style="fill:#F7B4B4;"/><path d="M30.662,84.959l-7.024,2.014c-0.175,0.05-0.363,0.001-0.491-0.127    c-0.129-0.129-0.177-0.317-0.127-0.491l2.014-7.024c1.308,0.346,2.545,1.032,3.571,2.058    C29.63,82.414,30.316,83.651,30.662,84.959z" style="fill:#3E3E3F;"/><rect height="28" style="fill:#FACB1B;" transform="matrix(0.7071 -0.7071 0.7071 0.7071 -6.7672 61.6293)" width="5.94" x="68.04" y="24.983"/><path d="M78.767,51.025l-27.16,27.16c-0.233,0.233-0.601,0.233-0.834,0    c-0.219-0.219-0.283-0.552-0.163-0.841c0.629-1.464,0.354-3.21-0.835-4.398c-1.174-1.174-2.885-1.457-4.342-0.863    c-0.281,0.128-0.681,0.083-0.955-0.191l-0.014-0.014c-0.248-0.248-0.332-0.629-0.191-0.955c0.594-1.457,0.311-3.168-0.863-4.342    c-1.174-1.174-2.885-1.457-4.342-0.863c-0.325,0.142-0.707,0.057-0.955-0.191c-0.29-0.29-0.335-0.681-0.205-0.968    c0.594-1.457,0.311-3.168-0.863-4.342c-1.188-1.188-2.934-1.464-4.398-0.835c-0.29,0.12-0.622,0.057-0.841-0.163    c-0.233-0.233-0.233-0.601,0-0.834l27.16-27.16L78.767,51.025z" style="fill:#059BBF;"/><path d="M72.403,44.661L44.931,72.133c-0.17-0.028-0.332-0.12-0.453-0.241    c-0.283-0.283-0.337-0.664-0.205-0.968c0.594-1.457,0.311-3.168-0.863-4.342c-1.174-1.174-2.885-1.457-4.342-0.863    c-0.305,0.133-0.685,0.079-0.968-0.205c-0.12-0.12-0.212-0.283-0.241-0.453L65.331,37.59L72.403,44.661z" style="fill:#21B2D1;"/><path d="M75.938,25.569c-3.126-3.125-8.188-3.125-11.313,0l-1.415,1.415l9.837,9.837l7.071-7.071    L75.938,25.569z" style="fill:#FBC8C8;"/></g></g></svg>