<?xml version="1.0" ?><!DOCTYPE svg  PUBLIC '-//W3C//DTD SVG 1.0//EN'  'http://www.w3.org/TR/2001/REC-SVG-20010904/DTD/svg10.dtd'><svg height="110px" style="enable-background:new 0 0 110 110;" version="1.0" viewBox="0 0 110 110" width="110px" xml:space="preserve" xmlns="http://www.w3.org/2000/svg" xmlns:xlink="http://www.w3.org/1999/xlink"><g id="Multicolor"><g><path d="M78.063,47C79.685,47,81,48.315,81,49.937c0,0.687-0.241,1.352-0.681,1.88L71,63V47H78.063z" style="fill:#5B5C5F;"/><path d="M78.063,67C79.685,67,81,68.315,81,69.937c0,0.687-0.241,1.352-0.681,1.88L71,83V67H78.063z" style="fill:#5B5C5F;"/><path d="M39,47v16l-9.319-11.183C29.241,51.289,29,50.624,29,49.937C29,48.315,30.315,47,31.937,47H39z" style="fill:#5B5C5F;"/><path d="M78.063,27C79.685,27,81,28.315,81,29.937c0,0.687-0.241,1.352-0.681,1.88L71,43V27H78.063z" style="fill:#5B5C5F;"/><path d="M39,27v16l-9.319-11.183C29.241,31.289,29,30.624,29,29.937C29,28.315,30.315,27,31.937,27H39z" style="fill:#5B5C5F;"/><path d="M39,67v16l-9.319-11.183C29.241,71.289,29,70.624,29,69.937C29,68.315,30.315,67,31.937,67H39z" style="fill:#5B5C5F;"/><path d="M43,23c-2.209,0-4,1.791-4,4v4.07V43v40c0,2.21,1.79,4,4,4h24c2.21,0,4-1.79,4-4V43V31.07V27    c0-2.209-1.791-4-4-4H43z" style="fill:#3E3E3F;"/><circle cx="55" cy="35" r="8" style="fill:#DF2C2C;"/><circle cx="55" cy="55" r="8" style="fill:#F37A10;"/><circle cx="55" cy="75" r="8" style="fill:#17B198;"/><path d="M55,27c-4.418,0-8,3.582-8,8c0,2.325,0.998,4.412,2.582,5.874l11.292-11.292    C59.412,27.998,57.325,27,55,27z" style="fill:#FA5655;"/><path d="M55,47c-4.418,0-8,3.582-8,8c0,2.325,0.998,4.412,2.582,5.874l11.292-11.292    C59.412,47.998,57.325,47,55,47z" style="fill:#F99134;"/><path d="M55,67c-4.418,0-8,3.582-8,8c0,2.325,0.998,4.412,2.582,5.874l11.292-11.292    C59.412,67.998,57.325,67,55,67z" style="fill:#4AC3AF;"/></g></g></svg>