<?xml version="1.0" encoding="UTF-8"?>
<svg width="400px" height="400px" viewBox="0 0 400 400" version="1.1" xmlns="http://www.w3.org/2000/svg" xmlns:xlink="http://www.w3.org/1999/xlink">
    <!-- Generator: Sketch 42 (36781) - http://www.bohemiancoding.com/sketch -->
    <title>logo</title>
    <desc>Created with Sketch.</desc>
    <defs></defs>
    <g id="Page-1" stroke="none" stroke-width="1" fill="none" fill-rule="evenodd">
        <g id="logo">
            <path d="M370,0 L400,0 L400,400 L0,400 L0,370 L370,0 Z M315.081516,296.742649 C318.597749,292.742529 323.549436,290.7425 329.936723,290.7425 C335.807866,290.7425 340.727293,292.629624 344.695153,296.40393 C348.663014,300.178237 350.872724,305.710577 351.32435,313.001116 L308.452319,313.001116 C309.355572,306.162203 311.565282,300.742768 315.081516,296.742649 Z M353.646988,272.935606 C346.614521,269.645186 338.711178,268 329.936723,268 C315.162089,268 303.145782,272.87104 293.887441,282.613266 C284.629101,292.355492 280,306.355699 280,324.614308 C280,344.09876 285.129108,358.163484 295.387479,366.808903 C305.645849,375.454322 317.484734,379.776967 330.904489,379.776967 C347.163038,379.776967 359.808386,374.647858 368.840914,364.389488 C374.647538,357.937683 377.905651,351.58275 378.61535,345.324499 L350.453361,345.324499 C348.969446,348.421366 347.259743,350.840756 345.324201,352.582744 C341.775708,355.808646 337.162737,357.421573 331.485148,357.421573 C326.13015,357.421573 321.549437,356.098973 317.742872,353.453733 C311.484621,349.195542 308.161991,341.776077 307.774883,331.195116 L379.970222,331.195116 C380.099258,322.098071 379.808931,315.130226 379.099233,310.291372 C377.87339,302.033061 375.195931,294.774889 371.066775,288.516638 C366.485994,281.419652 360.679456,276.226027 353.646988,272.935606 Z" id="Bottom-Right" fill="#009688"></path>
            <polygon id="Top-Left" fill="#4DB6AC" points="0 310 2.68882139e-16 0 310 0"></polygon>
        </g>
    </g>
</svg>